# This file uses centimeters as units for non-parametric coordinates.

mtllib pyramid.mtl
g default
v 0.000000 0.000000 2.200000
v -2.200000 2.200000 -2.200000
v 2.200000 2.200000 -2.200000
v -2.200000 -2.200000 -2.200000
v 2.200000 -2.200000 -2.200000
vt 0.500000 0.125000
vt 0.375000 0.500000
vt 0.625000 0.500000
vt 0.375000 0.750000
vt 0.625000 0.750000
vt 0.500000 1.000000
vt 0.875000 0.000000
vt 0.875000 0.250000
vt 0.125000 0.000000
vt 0.125000 0.250000
vn 0.000000 0.894427 0.447214
vn 0.000000 0.894427 0.447214
vn 0.000000 0.894427 0.447214
vn 0.000000 0.000000 -1.000000
vn 0.000000 0.000000 -1.000000
vn 0.000000 0.000000 -1.000000
vn 0.000000 0.000000 -1.000000
vn 0.000000 -0.894427 0.447214
vn 0.000000 -0.894427 0.447214
vn 0.000000 -0.894427 0.447214
vn 0.894427 0.000000 0.447214
vn 0.894427 0.000000 0.447214
vn 0.894427 0.000000 0.447214
vn -0.894427 0.000000 0.447214
vn -0.894427 0.000000 0.447214
vn -0.894427 0.000000 0.447214
s off
g pCube1
usemtl lambert2SG
f 1/1/1 3/3/2 2/2/3
f 2/2/4 3/3/5 5/5/6 4/4/7
f 4/4/8 5/5/9 1/6/10
f 1/1/11 5/7/12 3/8/13
f 4/9/14 1/1/15 2/10/16
